<svg width="286" height="40" viewBox="0 0 286 40" fill="none" xmlns="http://www.w3.org/2000/svg">
<path d="M8.88516 34.5508C8.156 34.5508 7.51797 34.5182 6.9711 34.4531C6.42422 34.388 5.9099 34.2318 5.42813 33.9844C4.16511 33.3724 3.5336 32.1484 3.5336 30.3125C3.5336 29.4271 3.67032 28.3659 3.94376 27.1289C4.23021 25.8919 4.63386 24.5573 5.15469 23.125C6.30053 19.974 7.7198 16.9466 9.41251 14.043C8.08438 14.1211 7.02969 14.3229 6.24844 14.6484C5.48021 14.9609 4.9724 15.4492 4.72501 16.1133C4.84219 16.1133 4.95938 16.25 5.07657 16.5234C5.19376 16.7969 5.25235 17.0768 5.25235 17.3633C5.25235 17.832 5.03751 18.2096 4.60782 18.4961C4.17813 18.7826 3.64428 18.9258 3.00626 18.9258C2.29011 18.9258 1.70417 18.7305 1.24844 18.3398C0.766673 17.9362 0.525787 17.3568 0.525787 16.6016C0.525787 15.9375 0.72761 15.306 1.13126 14.707C1.5349 14.0951 2.10782 13.5677 2.85001 13.125C3.60521 12.6693 4.47761 12.3177 5.46719 12.0703C6.4698 11.8099 7.54402 11.6797 8.68985 11.6797C9.24975 11.6797 9.94636 11.7188 10.7797 11.7969C13.0193 8.26823 15.2589 5.5013 17.4984 3.49609C20.1026 1.16536 22.4984 0 24.6859 0C25.988 0 27.0427 0.188802 27.85 0.566406L21.5805 30H15.8188L18.8852 15.4883C17.9216 15.0456 17.0167 14.7135 16.1703 14.4922C15.337 14.2708 14.4581 14.1211 13.5336 14.043C12.0232 17.3112 10.7862 20.651 9.82266 24.0625C8.83308 27.487 8.33829 30.2409 8.33829 32.3242C8.33829 33.3529 8.52058 34.0951 8.88516 34.5508ZM21.5805 2.83203C20.4216 3.45703 19.2042 4.63542 17.9281 6.36719C16.6781 8.08594 15.4932 10.0716 14.3734 12.3242C16.1964 12.6758 17.824 13.138 19.2563 13.7109L21.5805 2.83203ZM30.5378 30.2344C29.2618 30.2344 28.2527 29.8568 27.5105 29.1016C26.6771 28.2682 26.2605 27.0508 26.2605 25.4492C26.2605 24.694 26.3646 23.8216 26.573 22.832L29.2878 10H35.0495L32.1784 23.5938C32.1003 23.9193 32.0613 24.2578 32.0613 24.6094C32.0613 25.1172 32.1459 25.5208 32.3152 25.8203C32.5105 26.1849 32.823 26.3672 33.2527 26.3672C33.9818 26.3672 34.6394 26.0352 35.2253 25.3711C35.6941 24.8112 36.1042 23.9648 36.4558 22.832L39.1706 10H44.9324L42.0613 23.5938C41.918 24.2708 41.8464 24.7526 41.8464 25.0391C41.8464 25.4557 41.9571 25.7812 42.1784 26.0156C42.3998 26.25 42.7449 26.3672 43.2136 26.3672C43.8386 26.3672 44.4506 26.1458 45.0495 25.7031C45.6485 25.2604 46.2149 24.6484 46.7488 23.8672C47.2435 23.151 47.6993 22.3177 48.1159 21.3672C48.5456 20.4167 48.9102 19.4336 49.2097 18.418C49.4962 17.4284 49.7175 16.4648 49.8738 15.5273C50.043 14.5768 50.1277 13.737 50.1277 13.0078C50.0756 13.125 49.8868 13.2227 49.5613 13.3008C49.3529 13.3659 49.1185 13.3984 48.8581 13.3984C48.4024 13.3984 48.0443 13.1771 47.7839 12.7344C47.5365 12.3568 47.4128 11.901 47.4128 11.3672C47.4128 10.7161 47.6212 10.1953 48.0378 9.80469C48.4545 9.40104 49.073 9.19922 49.8933 9.19922C50.7787 9.19922 51.4363 9.55729 51.8659 10.2734C52.2305 10.8724 52.4128 11.6732 52.4128 12.6758C52.4128 13.7826 52.3152 14.9805 52.1199 16.2695C51.9376 17.5586 51.6576 18.8281 51.28 20.0781C50.3685 23.0469 49.1381 25.3841 47.5886 27.0898C45.7136 29.1862 43.5196 30.2344 41.0066 30.2344C39.6915 30.2344 38.6238 29.9544 37.8034 29.3945C36.9831 28.8346 36.4558 27.9948 36.2214 26.875C35.3751 28.1641 34.3855 29.082 33.2527 29.6289C32.4454 30.0326 31.5404 30.2344 30.5378 30.2344ZM58.4209 30.2344C56.4548 30.2344 54.9379 29.7396 53.8702 28.75C52.7374 27.6953 52.1709 26.0742 52.1709 23.8867C52.1709 23.0664 52.2556 22.1549 52.4249 21.1523C52.5811 20.1497 52.822 19.1471 53.1475 18.1445C53.5121 17.0247 53.9743 15.9635 54.5342 14.9609C55.1071 13.9583 55.7712 13.0729 56.5264 12.3047C58.2712 10.5339 60.4196 9.64844 62.9717 9.64844C64.5993 9.64844 65.7842 10.0391 66.5264 10.8203C67.0993 11.4323 67.3858 12.3177 67.3858 13.4766C67.3858 14.6094 67.1384 15.6771 66.6436 16.6797C66.1488 17.6693 65.4652 18.5482 64.5928 19.3164C63.7204 20.0716 62.7308 20.6771 61.6241 21.1328C60.5173 21.5755 59.3715 21.8359 58.1866 21.9141C58.1215 22.5911 58.0889 23.125 58.0889 23.5156C58.0889 24.8177 58.3363 25.7161 58.8311 26.2109C59.2608 26.6536 59.9769 26.875 60.9795 26.875C62.4249 26.875 63.7465 26.4844 64.9444 25.7031C65.4522 25.3776 65.9405 24.9935 66.4092 24.5508C66.878 24.0951 67.4249 23.5221 68.0499 22.832H69.417C68.154 24.9674 66.7022 26.6667 65.0616 27.9297C63.0433 29.4661 60.8298 30.2344 58.4209 30.2344ZM58.4991 20C59.2413 19.9479 59.9639 19.7331 60.667 19.3555C61.3702 18.9779 61.9952 18.4831 62.542 17.8711C63.0889 17.2461 63.5186 16.5495 63.8311 15.7812C64.1436 15 64.2999 14.2057 64.2999 13.3984C64.2999 12.8646 64.2217 12.4609 64.0655 12.1875C63.9222 11.901 63.6683 11.7578 63.3038 11.7578C62.822 11.7578 62.3337 11.9922 61.8389 12.4609C61.3571 12.9297 60.8884 13.5742 60.4327 14.3945C60.016 15.1628 59.6384 16.0352 59.2999 17.0117C58.9613 17.9883 58.6944 18.9844 58.4991 20ZM72.2806 30.2344C71.3171 30.2344 70.4642 30.0911 69.722 29.8047C68.9799 29.5052 68.3549 29.0951 67.847 28.5742C67.3783 28.0924 67.0267 27.5586 66.7924 26.9727C66.558 26.3737 66.4408 25.7552 66.4408 25.1172C66.4408 24.2448 66.6621 23.457 67.1049 22.7539C67.4955 22.1289 67.9838 21.6797 68.5697 21.4062C69.6114 19.5573 70.5163 17.6823 71.2845 15.7812C72.0528 13.8802 72.7884 11.8034 73.4916 9.55078L79.4095 8.76953C79.5658 12.1549 79.709 14.7526 79.8392 16.5625C79.9694 18.4245 80.0801 19.7917 80.1713 20.6641C80.2494 21.6797 80.2884 22.5651 80.2884 23.3203C80.2884 23.9974 80.2364 24.5052 80.1322 24.8438C81.3301 24.1406 82.2871 23.4701 83.0033 22.832H84.683C83.7325 23.9388 82.7494 24.8893 81.7338 25.6836C80.7312 26.4779 79.6765 27.194 78.5697 27.832C77.7754 28.6654 76.7793 29.2839 75.5814 29.6875C74.5397 30.0521 73.4395 30.2344 72.2806 30.2344ZM71.0111 27.0703C72.0137 27.0703 72.8145 26.7969 73.4134 26.25C74.1296 25.599 74.4877 24.6354 74.4877 23.3594C74.4877 22.8255 74.4551 22.1549 74.39 21.3477L74.2924 20.1562C74.1752 19.1276 74.058 17.9362 73.9408 16.582L73.7259 13.8867C73.3483 15.0977 72.8991 16.3021 72.3783 17.5C71.8575 18.6849 71.2259 20 70.4838 21.4453C71.0957 21.7839 71.4017 22.2461 71.4017 22.832C71.4017 23.3529 71.2455 23.8021 70.933 24.1797C70.5944 24.5964 70.1647 24.8047 69.6439 24.8047C69.3835 24.8047 69.1621 24.7721 68.9799 24.707C68.8106 24.6289 68.6739 24.4857 68.5697 24.2773C68.5697 25.2409 68.7585 25.9505 69.1361 26.4062C69.5137 26.849 70.1387 27.0703 71.0111 27.0703ZM88.5231 30.1562C86.544 30.1562 85.014 29.6745 83.9333 28.7109C82.7224 27.6432 82.1169 26.0221 82.1169 23.8477C82.1169 23.0273 82.2015 22.1224 82.3708 21.1328C82.5401 20.1302 82.8005 19.1211 83.152 18.1055C83.9593 15.6836 85.1117 13.75 86.6091 12.3047C88.419 10.5339 90.5739 9.64844 93.0739 9.64844C96.4984 9.64844 98.2106 11.7773 98.2106 16.0352V16.0742C98.2888 16.1003 98.3539 16.1133 98.4059 16.1133H98.6403C99.5257 16.1133 100.574 15.8659 101.785 15.3711C102.853 14.9284 103.862 14.375 104.812 13.7109L105.164 14.8047C104.383 15.625 103.373 16.3216 102.136 16.8945C100.912 17.4674 99.5583 17.8776 98.0739 18.125C97.9177 19.9349 97.5661 21.5885 97.0192 23.0859C96.4724 24.5703 95.7692 25.8464 94.9099 26.9141C94.0635 27.9557 93.0934 28.7565 91.9997 29.3164C90.9059 29.8763 89.7471 30.1562 88.5231 30.1562ZM90.1247 26.5625C90.5934 26.5625 91.0687 26.3542 91.5505 25.9375C92.0453 25.5078 92.5075 24.9154 92.9372 24.1602C93.3669 23.4049 93.738 22.5195 94.0505 21.5039C94.363 20.4883 94.5974 19.401 94.7536 18.2422C94.363 18.138 94.083 17.9427 93.9138 17.6562C93.7575 17.3698 93.6794 17.0052 93.6794 16.5625C93.6794 16.0156 93.7901 15.5599 94.0114 15.1953C94.2328 14.8307 94.5388 14.5638 94.9294 14.3945C94.8773 13.5482 94.7406 12.9427 94.5192 12.5781C94.402 12.3958 94.2523 12.2656 94.07 12.1875C93.9007 12.1094 93.6794 12.0703 93.4059 12.0703C92.5075 12.0703 91.6286 12.7474 90.7692 14.1016C89.975 15.3255 89.3239 16.8359 88.8161 18.6328C88.3213 20.3906 88.0739 21.9531 88.0739 23.3203C88.0739 23.9844 88.1065 24.5247 88.1716 24.9414C88.2497 25.3581 88.3734 25.6836 88.5427 25.918C88.6989 26.1523 88.9007 26.3216 89.1481 26.4258C89.3955 26.5169 89.721 26.5625 90.1247 26.5625ZM124.258 30.2344C122.604 30.2344 121.38 29.7656 120.586 28.8281C119.896 28.0208 119.551 26.9857 119.551 25.7227C119.551 25.1237 119.622 24.4271 119.766 23.6328C119.922 22.8385 120.15 21.8164 120.449 20.5664C120.749 19.2904 120.97 18.2747 121.113 17.5195C121.27 16.7513 121.348 16.0872 121.348 15.5273C121.348 14.1602 120.866 13.4766 119.902 13.4766C119.225 13.4766 118.6 13.8346 118.027 14.5508C117.546 15.1628 117.129 16.0352 116.777 17.168L114.063 30H108.301L111.23 16.1914C111.309 15.8789 111.348 15.5469 111.348 15.1953C111.348 14.6615 111.263 14.2513 111.094 13.9648C110.872 13.6133 110.553 13.4375 110.137 13.4375C109.382 13.4375 108.724 13.8021 108.164 14.5312C107.669 15.1562 107.246 16.0352 106.895 17.168L104.18 30H98.418L102.656 10H108.418L107.988 12.0703C108.77 11.1979 109.622 10.5794 110.547 10.2148C111.276 9.94141 112.051 9.80469 112.871 9.80469C113.991 9.80469 114.883 10.0651 115.547 10.5859C116.289 11.1719 116.764 12.0573 116.973 13.2422C117.832 11.9141 118.822 10.9766 119.941 10.4297C120.736 10.0391 121.602 9.84375 122.539 9.84375C123.88 9.84375 124.941 10.1953 125.723 10.8984C126.556 11.6667 126.973 12.819 126.973 14.3555C126.973 15.2279 126.81 16.4323 126.484 17.9688C126.354 18.6068 126.198 19.2513 126.016 19.9023C125.69 21.1523 125.423 22.3047 125.215 23.3594C125.111 23.9062 125.059 24.349 125.059 24.6875C125.059 25.2214 125.176 25.638 125.41 25.9375C125.658 26.224 126.074 26.3672 126.66 26.3672C127.454 26.3672 128.125 26.0417 128.672 25.3906C129.089 24.8958 129.538 24.043 130.02 22.832H131.699C130.71 25.7617 129.46 27.8125 127.949 28.9844C126.882 29.8177 125.651 30.2344 124.258 30.2344ZM135.422 30.2344C133.456 30.2344 131.939 29.7396 130.871 28.75C129.739 27.6953 129.172 26.0742 129.172 23.8867C129.172 23.0664 129.257 22.1549 129.426 21.1523C129.582 20.1497 129.823 19.1471 130.149 18.1445C130.513 17.0247 130.976 15.9635 131.535 14.9609C132.108 13.9583 132.772 13.0729 133.528 12.3047C135.272 10.5339 137.421 9.64844 139.973 9.64844C141.601 9.64844 142.785 10.0391 143.528 10.8203C144.101 11.4323 144.387 12.3177 144.387 13.4766C144.387 14.6094 144.14 15.6771 143.645 16.6797C143.15 17.6693 142.466 18.5482 141.594 19.3164C140.722 20.0716 139.732 20.6771 138.625 21.1328C137.519 21.5755 136.373 21.8359 135.188 21.9141C135.123 22.5911 135.09 23.125 135.09 23.5156C135.09 24.8177 135.338 25.7161 135.832 26.2109C136.262 26.6536 136.978 26.875 137.981 26.875C139.426 26.875 140.748 26.4844 141.946 25.7031C142.453 25.3776 142.942 24.9935 143.41 24.5508C143.879 24.0951 144.426 23.5221 145.051 22.832H146.418C145.155 24.9674 143.703 26.6667 142.063 27.9297C140.045 29.4661 137.831 30.2344 135.422 30.2344ZM135.5 20C136.243 19.9479 136.965 19.7331 137.668 19.3555C138.371 18.9779 138.996 18.4831 139.543 17.8711C140.09 17.2461 140.52 16.5495 140.832 15.7812C141.145 15 141.301 14.2057 141.301 13.3984C141.301 12.8646 141.223 12.4609 141.067 12.1875C140.923 11.901 140.67 11.7578 140.305 11.7578C139.823 11.7578 139.335 11.9922 138.84 12.4609C138.358 12.9297 137.89 13.5742 137.434 14.3945C137.017 15.1628 136.64 16.0352 136.301 17.0117C135.963 17.9883 135.696 18.9844 135.5 20ZM148.696 30.2344C147.42 30.2344 146.411 29.8568 145.669 29.1016C144.835 28.2682 144.419 27.0508 144.419 25.4492C144.419 24.694 144.523 23.8216 144.731 22.832L149.008 2.79297L154.926 1.99219L150.337 23.5938C150.232 23.9323 150.18 24.362 150.18 24.8828C150.18 25.4297 150.304 25.8138 150.551 26.0352C150.812 26.2565 151.228 26.3672 151.801 26.3672C152.192 26.3672 152.57 26.2826 152.934 26.1133C153.312 25.931 153.657 25.6836 153.969 25.3711C154.607 24.7331 155.089 23.8867 155.415 22.832H157.094C156.378 24.8503 155.48 26.4583 154.399 27.6562C153.488 28.6328 152.459 29.3359 151.313 29.7656C150.48 30.0781 149.607 30.2344 148.696 30.2344ZM161.345 40C160.72 40 160.134 39.9154 159.587 39.7461C159.053 39.5898 158.591 39.349 158.2 39.0234C157.783 38.6979 157.458 38.2878 157.224 37.793C156.989 37.3112 156.872 36.7513 156.872 36.1133C156.872 34.6029 157.582 33.3073 159.001 32.2266C160.069 31.4323 161.533 30.7422 163.395 30.1562L163.884 28.0078C163.103 28.8672 162.256 29.4727 161.345 29.8242C160.642 30.0977 159.886 30.2344 159.079 30.2344C157.803 30.2344 156.794 29.8568 156.052 29.1016C155.218 28.2682 154.802 27.0508 154.802 25.4492C154.802 24.694 154.906 23.8216 155.114 22.832L157.829 10H163.591L160.72 23.5938C160.642 23.9193 160.603 24.2578 160.603 24.6094C160.603 25.1172 160.687 25.5208 160.856 25.8203C161.052 26.1849 161.364 26.3672 161.794 26.3672C162.497 26.3672 163.129 26.0547 163.688 25.4297C164.17 24.8958 164.58 24.1146 164.919 23.0859L167.712 10H173.474L169.509 28.5547C170.772 28.138 171.781 27.513 172.536 26.6797C173.356 25.7812 174.027 24.4987 174.548 22.832H176.228C175.511 25.2018 174.444 27.0312 173.024 28.3203C171.983 29.2578 170.694 29.9219 169.157 30.3125L168.552 33.2031C168.044 35.7552 167.028 37.6042 165.505 38.75C164.398 39.5833 163.011 40 161.345 40ZM160.427 36.875C160.83 36.875 161.26 36.582 161.716 35.9961C162.158 35.4232 162.504 34.5312 162.751 33.3203L162.985 32.168C161.774 32.6237 160.869 33.0859 160.27 33.5547C159.476 34.1536 159.079 34.8242 159.079 35.5664C159.079 35.918 159.19 36.2109 159.411 36.4453C159.658 36.7318 159.997 36.875 160.427 36.875ZM184.799 30V2.48H193.119L199.999 15.84L206.719 2.48H215.039V30H206.719V15.6L201.639 25.2H198.239L193.119 15.6V30H184.799ZM224.892 30.32C223.052 30.32 221.386 29.88 219.892 29C218.399 28.0933 217.212 26.8533 216.332 25.28C215.479 23.7067 215.052 21.9067 215.052 19.88C215.052 17.8533 215.479 16.08 216.332 14.56C217.212 13.04 218.399 11.8533 219.892 11C221.386 10.12 223.052 9.68 224.892 9.68C226.199 9.68 227.466 10.04 228.692 10.76C229.919 11.48 230.866 12.6667 231.532 14.32V9.96H239.852V30H231.452V26.28C230.812 27.5867 229.959 28.5867 228.892 29.28C227.826 29.9733 226.492 30.32 224.892 30.32ZM227.492 24C228.586 24 229.519 23.6133 230.292 22.84C231.066 22.04 231.452 21.0667 231.452 19.92C231.452 18.7733 231.066 17.84 230.292 17.12C229.519 16.3733 228.586 16 227.492 16C226.346 16 225.386 16.3867 224.612 17.16C223.839 17.9333 223.452 18.88 223.452 20C223.452 21.12 223.839 22.0667 224.612 22.84C225.386 23.6133 226.346 24 227.492 24ZM249.705 30.32C247.865 30.32 246.198 29.88 244.705 29C243.212 28.0933 242.025 26.8533 241.145 25.28C240.292 23.7067 239.865 21.9067 239.865 19.88C239.865 17.8533 240.292 16.08 241.145 14.56C242.025 13.04 243.212 11.8533 244.705 11C246.198 10.12 247.865 9.68 249.705 9.68C251.012 9.68 252.265 10.04 253.465 10.76C254.692 11.4533 255.598 12.5867 256.185 14.16V3.64L264.625 2.4V30H256.265V26.28C255.625 27.5867 254.772 28.5867 253.705 29.28C252.638 29.9733 251.305 30.32 249.705 30.32ZM252.305 24C253.398 24 254.332 23.6133 255.105 22.84C255.878 22.04 256.265 21.0667 256.265 19.92C256.265 18.7733 255.878 17.84 255.105 17.12C254.332 16.3733 253.398 16 252.305 16C251.158 16 250.198 16.3867 249.425 17.16C248.652 17.9333 248.265 18.88 248.265 20C248.265 21.12 248.652 22.0667 249.425 22.84C250.198 23.6133 251.158 24 252.305 24ZM278.078 24.72C278.852 24.72 279.665 24.64 280.518 24.48C281.398 24.32 282.292 24.0267 283.198 23.6L284.158 28.76C283.172 29.2667 282.092 29.6533 280.918 29.92C279.772 30.1867 278.452 30.32 276.958 30.32C274.265 30.32 271.998 29.88 270.158 29C268.345 28.12 266.972 26.9067 266.038 25.36C265.105 23.8133 264.638 22.0267 264.638 20C264.638 17.92 265.132 16.1067 266.118 14.56C267.132 13.0133 268.478 11.8133 270.158 10.96C271.838 10.1067 273.692 9.68 275.718 9.68C278.732 9.68 281.038 10.6267 282.638 12.52C284.238 14.3867 285.038 17.0533 285.038 20.52L273.118 22.04C273.998 23.8267 275.652 24.72 278.078 24.72ZM272.478 18.36L278.758 17.04C278.652 16.1867 278.358 15.56 277.878 15.16C277.398 14.7333 276.798 14.52 276.078 14.52C275.012 14.52 274.158 14.8933 273.518 15.64C272.905 16.36 272.558 17.2667 272.478 18.36Z" fill="black"/>
</svg>
